<svg version="1.0" xmlns="http://www.w3.org/2000/svg" width="2048.000000ptpx" height="2048.000000ptpx" viewBox="0 0 2048.000000 2048.000000" preserveAspectRatio="xMidYMid meet" transform="rotate(0) scale(1, 1)">
<metadata>
Created by potrace 1.16, written by Peter Selinger 2001-2019
</metadata>
<g transform="translate(0.000000,2048.000000) scale(0.100000,-0.100000)" fill="#ff0000" stroke="none">
<path d="M5485 18583 c-471 -38 -834 -109 -1223 -239 -947 -315 -1751 -913&#10;-2320 -1724 -382 -544 -657 -1223 -771 -1900 -60 -351 -66 -449 -65 -975 1&#10;-599 23 -937 95 -1439 174 -1219 585 -2222 1310 -3196 314 -423 596 -745 1079&#10;-1234 625 -632 1077 -1041 2745 -2486 1705 -1477 2676 -2347 3703 -3318 106&#10;-100 197 -182 202 -182 6 0 97 82 203 182 974 924 1995 1840 3702 3318 1668&#10;1445 2120 1854 2745 2486 592 599 972 1053 1315 1569 703 1059 1040 2112 1151&#10;3595 25 331 26 1125 1 1340 -72 631 -219 1140 -478 1659 -234 470 -485 817&#10;-859 1191 -113 113 -260 250 -326 304 -711 576 -1518 913 -2459 1027 -331 41&#10;-863 37 -1203 -7 -1440 -186 -2747 -1046 -3642 -2395 -53 -80 -107 -164 -120&#10;-187 -13 -23 -26 -42 -30 -42 -3 0 -14 15 -24 33 -51 87 -234 357 -327 482&#10;-551 735 -1218 1299 -1974 1666 -549 267 -1097 417 -1710 469 -108 9 -621 11&#10;-720 3z"/>
</g>
</svg>